<?xml version="1.0" standalone="no"?>
<!DOCTYPE svg PUBLIC "-//W3C//DTD SVG 20010904//EN"
 "http://www.w3.org/TR/2001/REC-SVG-20010904/DTD/svg10.dtd">
<svg version="1.0" xmlns="http://www.w3.org/2000/svg"
 width="352.000000pt" height="473.000000pt" viewBox="0 0 352.000000 473.000000"
 preserveAspectRatio="xMidYMid meet">

<g transform="translate(0.000000,473.000000) scale(0.100000,-0.100000)"
fill="#000000" stroke="none">
<path d="M269 4481 c-14 -5 -35 -14 -47 -20 -54 -29 -74 -172 -34 -251 28 -58
109 -160 127 -160 7 0 16 -10 18 -22 4 -20 4 -19 6 5 0 15 5 27 10 27 15 0 41
-42 34 -54 -3 -6 0 -6 7 1 11 10 16 9 27 -5 11 -15 12 -9 8 38 -11 106 -26
185 -40 210 -8 14 -14 21 -15 16 0 -5 -7 -3 -15 4 -12 10 -15 10 -15 -4 0 -9
-4 -16 -9 -16 -5 0 -9 -21 -8 -47 2 -38 -2 -48 -15 -51 -24 -5 -68 29 -63 48
3 9 -5 23 -18 33 -21 15 -23 24 -20 84 3 92 9 112 39 123 32 13 95 13 127 1
28 -11 56 -72 62 -138 3 -25 7 -49 10 -54 3 -5 1 -18 -5 -29 -6 -11 -7 -20 -2
-20 6 0 10 -17 10 -37 1 -21 6 -166 11 -323 6 -157 8 -415 5 -575 -2 -159 -4
-312 -4 -338 1 -60 -19 -132 -64 -223 -30 -62 -38 -71 -61 -71 -18 0 -30 7
-37 23 -6 13 -15 24 -21 24 -5 0 -6 12 -3 26 5 17 3 23 -4 19 -25 -16 1 -165
29 -165 6 0 11 -8 11 -17 -1 -21 -23 -53 -37 -53 -6 0 -16 -7 -23 -15 -10 -12
-10 -15 4 -15 9 0 16 5 16 11 0 29 22 -5 69 -106 2 -5 -3 -4 -12 3 -9 8 -21
11 -27 7 -13 -8 -13 -58 -1 -71 11 -11 -6 -38 -29 -46 -22 -8 -50 10 -44 27 4
8 12 15 20 15 17 0 17 5 4 30 -15 29 -2 66 28 80 17 8 22 14 14 17 -7 3 -22
-3 -32 -12 -15 -13 -23 -14 -39 -5 -12 6 -21 16 -21 22 0 6 -3 8 -7 5 -3 -4 6
-20 20 -35 15 -16 24 -31 20 -35 -10 -10 -25 -8 -18 2 3 5 1 12 -5 16 -6 4
-10 -7 -10 -28 0 -43 -9 -51 -32 -30 -21 19 -23 9 -7 -36 6 -17 17 -31 23 -31
16 0 71 -67 80 -98 5 -16 3 -29 -8 -40 -24 -27 -39 -108 -25 -135 24 -44 63
-88 91 -103 28 -14 28 -16 30 -112 l2 -97 4 85 c4 119 -1 141 -47 175 -21 16
-45 42 -54 58 -15 25 -15 32 -3 61 21 50 31 50 67 4 19 -24 40 -48 48 -54 8
-6 11 -16 7 -23 -5 -7 -2 -20 6 -29 66 -78 77 -141 79 -463 1 -189 4 -222 22
-279 12 -36 24 -67 27 -70 8 -8 29 -43 39 -65 5 -11 12 -92 15 -180 4 -88 10
-168 12 -177 3 -10 1 -18 -4 -18 -5 0 -12 43 -16 96 -9 124 -26 169 -82 221
-47 44 -52 66 -18 71 15 2 24 -7 34 -33 8 -19 21 -42 30 -50 15 -14 17 -12 18
22 3 67 -71 118 -112 78 -28 -29 -37 -18 -30 38 4 31 16 63 29 78 21 25 21 33
17 190 -3 129 -7 168 -20 182 -14 15 -14 17 1 17 21 0 22 20 2 46 -16 22 -20
75 -6 90 6 5 7 29 4 54 -5 34 -8 40 -14 25 -6 -17 -8 -15 -9 10 0 17 -7 44
-15 60 -8 17 -13 21 -11 10 14 -66 20 -199 17 -413 -1 -166 1 -248 9 -257 13
-16 -3 -30 -22 -19 -8 5 -9 -3 -5 -30 7 -42 -9 -96 -28 -96 -7 0 -36 -18 -64
-40 -64 -51 -68 -82 -16 -131 24 -23 35 -43 36 -64 2 -26 2 -27 6 -5 8 50 12
55 29 38 25 -24 18 -158 -7 -143 -5 4 -9 1 -9 -4 0 -6 6 -11 13 -11 7 -1 5 -6
-5 -14 -10 -7 -15 -16 -11 -19 3 -4 -3 -9 -13 -12 -46 -15 -83 -39 -93 -63
-10 -22 -8 -32 12 -73 23 -43 24 -48 9 -63 -9 -8 -13 -18 -9 -22 9 -9 41 14
102 71 71 68 175 132 189 118 8 -8 -13 -43 -26 -43 -6 0 -35 -18 -65 -40 -60
-46 -100 -113 -110 -185 -9 -69 -27 -56 -20 15 8 73 -5 78 -53 23 -90 -102
-78 -199 29 -229 107 -32 175 -1 271 125 83 110 157 152 247 143 50 -5 91 -40
91 -77 0 -31 -10 -31 -56 0 -36 24 -91 33 -126 19 -23 -9 -20 -24 5 -24 32 0
59 -19 59 -41 0 -29 -25 -34 -63 -10 -60 37 -88 29 -149 -41 -89 -105 -122
-127 -202 -135 -40 -4 -61 -1 -92 15 -55 28 -75 54 -90 114 -10 45 -12 48 -13
20 -3 -108 105 -187 221 -163 67 15 127 52 198 122 32 33 64 59 70 59 6 0 34
-7 61 -16 46 -15 53 -15 92 0 24 9 58 16 77 16 20 0 51 5 70 10 34 10 36 9 75
-34 39 -43 90 -76 118 -76 7 0 28 -16 47 -35 27 -28 42 -35 73 -35 48 0 112
42 151 99 36 51 70 54 124 12 55 -42 166 -85 220 -85 69 0 147 32 209 86 68
60 100 63 138 14 54 -70 147 -97 215 -62 36 19 90 28 90 16 0 -18 104 -70 139
-70 33 0 46 8 99 60 l60 60 73 -35 c84 -40 93 -41 150 -18 39 15 45 15 95 -2
44 -15 61 -16 91 -8 55 16 75 13 103 -13 14 -12 39 -26 55 -30 17 -4 36 -11
42 -17 7 -5 32 -9 55 -9 37 1 47 6 85 47 74 81 71 143 -13 304 -31 58 -62 113
-70 122 -19 22 -18 128 3 191 15 47 15 53 -1 82 -21 39 -72 96 -86 96 -11 0
-15 786 -4 814 3 9 11 16 16 16 5 0 27 12 49 28 44 31 69 75 69 122 0 41 -19
110 -37 131 -19 23 -18 26 37 80 50 49 50 50 50 114 0 69 -12 107 -45 142 -12
12 -27 33 -35 48 -12 23 -11 30 8 71 40 81 22 136 -58 185 l-50 31 -1 111 c-8
645 -8 666 7 660 17 -6 67 24 59 36 -2 5 4 19 14 33 36 46 31 78 -19 124 -39
36 -40 40 -40 100 0 49 4 66 18 74 16 11 15 11 -2 5 -13 -3 -5 10 22 40 45 48
52 81 27 125 -19 33 -19 51 0 44 10 -4 15 0 15 11 0 12 -5 15 -21 10 -19 -6
-20 -5 -9 15 6 11 18 24 26 27 8 3 26 27 39 54 29 55 33 125 11 168 -15 27
-63 67 -72 58 -3 -2 6 -11 19 -20 13 -8 30 -29 37 -46 20 -48 5 -92 -50 -152
-27 -30 -66 -75 -87 -100 -46 -56 -126 -115 -132 -97 -2 7 4 17 14 23 43 24
85 69 106 111 l22 46 -23 48 c-32 69 -14 104 30 60 13 -13 20 -33 20 -60 0
-22 2 -40 5 -40 15 0 64 69 70 96 6 34 -11 83 -29 85 -6 1 -15 2 -21 4 -5 1
-17 3 -25 4 -11 2 -10 5 5 11 14 6 3 9 -40 9 -33 0 -70 -5 -81 -12 -12 -7 -67
-55 -123 -106 -55 -52 -116 -101 -136 -109 -70 -28 -190 15 -190 68 0 36 31
37 69 2 30 -28 86 -48 86 -31 0 5 3 8 8 8 40 -7 41 4 2 24 -25 12 -44 28 -42
35 3 15 -3 15 -30 1 -14 -8 -27 -8 -47 1 -29 12 -70 0 -99 -27 -20 -19 -27
-17 -66 30 -20 23 -43 50 -51 60 -10 11 -30 17 -60 17 -25 0 -45 4 -45 8 0 5
-13 18 -29 30 l-29 21 12 -25 c6 -13 14 -24 19 -24 4 0 7 -4 7 -10 0 -17 -26
-11 -44 9 -11 12 -25 17 -39 14 -30 -8 -67 -43 -67 -64 0 -9 -7 -19 -15 -23
-15 -5 -21 15 -8 28 9 9 11 46 2 46 -14 0 -60 -63 -66 -91 -4 -22 -11 -29 -29
-29 -12 0 -34 -4 -48 -10 -20 -7 -26 -6 -26 4 0 33 -152 128 -199 126 -7 -1
31 -24 42 -26 4 -1 10 -2 14 -3 10 -2 -39 -41 -52 -41 -7 0 -17 -6 -23 -13
-18 -22 -125 -16 -151 7 l-22 20 36 21 c47 29 56 39 25 30 -14 -4 -48 -27 -77
-51 -58 -50 -99 -57 -140 -25 -13 11 -30 18 -36 16 -7 -2 -21 10 -32 27 -11
17 -26 33 -33 36 -7 2 -2 -7 12 -22 29 -28 33 -61 12 -110 -17 -40 -60 -56
-85 -31 -15 15 -15 17 1 26 51 29 61 66 27 100 -24 24 -78 22 -104 -5 -21 -21
-19 -31 13 -58 15 -13 28 -31 28 -41 2 -15 -2 -14 -20 6 -13 13 -45 30 -74 37
-40 11 -52 19 -57 37 -9 38 2 46 61 38 50 -6 55 -5 63 17 11 29 -5 37 -24 12
-8 -11 -15 -14 -15 -7 0 8 -9 9 -35 2 -30 -8 -37 -7 -57 13 l-22 22 -9 -34
c-5 -19 -17 -46 -28 -61 -23 -33 -24 -39 -2 -39 13 0 14 -3 5 -12 -9 -9 -15
-8 -26 7 -8 11 -19 16 -30 12 -21 -8 -40 -51 -33 -71 8 -20 27 -21 27 -2 0 7
7 20 16 27 15 12 16 11 9 -11 -4 -13 -14 -30 -21 -38 -12 -11 -16 -11 -30 2
-8 9 -19 16 -24 16 -5 0 -11 8 -13 18 -4 15 -5 14 -6 -2 -1 -20 -1 -20 -17 0
-10 13 -17 15 -20 7 -18 -42 -52 -78 -77 -81 -32 -4 -33 2 -7 35 11 14 20 33
21 42 0 12 2 11 9 -4 8 -18 9 -18 9 -2 1 11 -15 37 -34 59 -19 23 -32 44 -30
48 8 12 -39 48 -70 55 l-30 6 31 -15 c48 -22 51 -36 7 -36 -22 -1 -47 -8 -60
-19 -30 -26 -63 -91 -63 -126 1 -28 2 -27 26 20 46 89 114 131 152 93 15 -15
15 -70 1 -122 -8 -29 -8 -41 2 -46 15 -10 5 -52 -17 -74 -20 -21 -26 -20 -54
4 -29 25 -31 25 -54 -6 -21 -29 -19 -52 14 -137 22 -59 21 -83 -4 -56 -23 25
-46 98 -46 149 0 28 4 50 8 50 11 0 47 78 40 86 -3 3 -20 -20 -38 -50 -17 -31
-35 -56 -38 -56 -4 0 -7 68 -7 152 0 84 2 143 3 132 7 -35 25 -42 20 -6 -3 17
-4 32 -4 32 23 5 76 29 63 30 -10 0 -32 -7 -49 -16 -28 -15 -34 -15 -69 1 -33
15 -48 16 -101 7 -56 -9 -65 -8 -78 8 -38 45 -132 70 -191 51z m3064 -78 c31
-6 45 -41 28 -70 -6 -10 -11 -13 -11 -6 0 6 -11 25 -25 41 -23 27 -29 30 -58
21 -17 -5 -47 -24 -64 -44 -34 -36 -41 -33 -22 8 12 27 86 68 109 61 8 -3 27
-8 43 -11z m-2715 -11 c28 -28 33 -125 27 -493 l-6 -324 22 25 22 25 -8 -25
c-6 -18 6 -9 45 33 61 67 95 87 145 87 36 0 48 -16 20 -27 -14 -5 -14 -7 0
-23 16 -17 14 -17 -29 -2 -55 20 -74 11 -129 -57 -41 -52 -97 -154 -97 -177 0
-35 28 -8 55 53 39 91 77 133 120 133 44 0 54 -17 15 -25 -22 -5 -41 -22 -71
-66 -22 -33 -47 -74 -55 -92 -38 -81 -44 -88 -65 -77 -20 11 -28 -3 -9 -15 15
-9 12 -31 -10 -77 -24 -50 -24 -48 -5 -48 18 0 18 -4 3 -33 -6 -12 -16 -31
-21 -42 -12 -24 -33 -114 -42 -180 -15 -119 -32 -217 -41 -240 -4 -11 -20 -39
-36 -62 -16 -24 -24 -43 -18 -43 13 0 13 -47 0 -55 -6 -3 -10 -17 -10 -31 0
-14 -5 -35 -11 -46 -7 -14 -8 -23 -1 -27 21 -13 13 -66 -12 -83 -23 -16 -56
-8 -65 15 -20 54 -20 124 0 163 13 27 16 40 8 45 -7 4 8 16 36 28 26 12 54 29
61 39 18 23 44 113 44 152 0 17 4 29 9 26 4 -3 9 22 10 56 1 34 4 64 6 68 3 4
6 59 6 121 2 98 5 116 20 127 17 12 17 14 -2 59 -18 42 -18 48 -4 69 8 13 22
24 31 24 23 0 39 21 41 55 7 92 12 649 7 758 -6 118 -8 131 -31 158 l-26 30
-24 -23 c-20 -19 -25 -20 -33 -8 -5 8 -9 24 -8 35 1 17 1 17 5 -3 6 -29 23
-19 23 14 0 21 5 24 35 24 21 0 43 -8 53 -18z m576 -30 c-4 -18 -10 -32 -15
-32 -4 0 -3 15 2 32 5 18 9 35 9 37 0 2 2 2 5 -1 3 -3 2 -19 -1 -36z m1364 -7
c2 -30 0 -36 -8 -25 -8 13 -10 13 -10 -2 0 -20 -20 -24 -37 -7 -17 17 -39 -25
-53 -104 -9 -51 -10 -71 -1 -80 6 -6 11 -17 11 -25 0 -23 49 -79 85 -96 40
-19 66 -22 125 -12 45 8 45 8 25 -12 -11 -11 -23 -18 -27 -15 -5 2 -8 0 -8 -6
0 -23 -48 -22 -103 3 -45 19 -63 35 -92 79 -35 53 -37 59 -39 156 -2 56 1 101
5 101 5 0 9 5 9 11 0 16 39 63 58 71 39 16 57 5 60 -37z m-536 1 c10 6 9 -5
-9 -88 -4 -18 -6 -39 -4 -45 1 -7 -3 -13 -9 -13 -5 0 -10 9 -10 19 0 11 -5 23
-11 26 -6 4 -8 14 -5 22 3 8 1 11 -4 8 -6 -3 -10 -24 -10 -46 0 -44 -14 -50
-57 -22 -26 17 -26 17 -21 -5 4 -12 2 -22 -3 -22 -5 0 -9 9 -9 19 0 11 -4 23
-10 26 -16 10 -12 38 5 31 10 -4 15 1 15 14 0 11 5 20 11 20 7 0 17 8 24 17 7
9 23 18 36 20 13 2 31 10 39 19 9 8 16 10 18 4 2 -5 8 -7 14 -4z m-251 -45
c24 -11 44 -27 45 -38 2 -10 6 -29 9 -43 9 -39 -8 -56 -42 -44 -15 5 -28 16
-28 24 0 9 -10 30 -23 47 -22 31 -28 54 -15 66 8 9 4 10 54 -12z m600 -19 c-4
-15 -6 -34 -3 -42 3 -12 2 -12 -8 -3 -14 13 -5 87 10 78 5 -3 5 -18 1 -33z
m-71 -19 c0 -13 -4 -23 -9 -23 -17 0 -23 20 -16 48 5 20 8 23 16 11 5 -7 9
-24 9 -36z m-646 -18 c-5 -97 -10 -135 -16 -135 -5 0 -8 18 -8 39 0 22 -4 43
-10 46 -5 3 -10 1 -10 -5 0 -6 -4 -9 -9 -5 -5 3 -12 1 -16 -4 -8 -14 5 -62 16
-55 5 3 9 -4 9 -15 0 -44 -25 -12 -45 57 -3 12 -12 22 -19 22 -9 0 -6 15 11
48 23 48 25 49 61 43 33 -6 37 -9 36 -36z m36 8 c0 -20 -16 -8 -23 17 -4 17
-3 19 9 9 8 -6 14 -18 14 -26z m-1122 18 c8 -4 16 -32 19 -62 7 -63 9 -760 2
-804 -4 -24 -11 -31 -37 -36 l-32 -6 0 68 c0 58 3 70 22 83 12 9 18 19 14 23
-5 5 -11 2 -13 -4 -3 -7 -9 -13 -14 -13 -5 0 -7 39 -4 93 3 67 15 586 15 660
0 9 12 9 28 -2z m1680 -5 c29 -18 10 -27 -42 -21 -57 7 -59 7 -100 -50 -11
-14 -18 -17 -26 -9 -13 13 5 68 20 59 6 -3 22 3 37 15 26 21 82 24 111 6z
m417 -47 c0 -24 4 -50 9 -57 4 -7 6 -16 3 -19 -8 -7 -37 53 -37 77 0 11 -6 23
-14 26 -8 3 -12 12 -10 19 4 10 12 11 27 6 18 -7 22 -17 22 -52z m40 51 c3 -5
1 -10 -4 -10 -6 0 -11 5 -11 10 0 6 2 10 4 10 3 0 8 -4 11 -10z m-1410 -14
c21 -14 22 -18 12 -60 -6 -25 -14 -46 -19 -46 -5 0 -25 7 -45 15 -34 14 -38
14 -72 -6 -20 -12 -48 -25 -63 -30 -25 -7 -28 -5 -28 16 0 14 14 35 36 54 19
17 32 36 29 41 -12 19 3 25 65 28 42 2 69 -1 85 -12z m1441 -84 c-11 -10 -25
13 -31 48 l-6 35 21 -38 c12 -22 19 -42 16 -45z m446 -23 l-20 -44 -1 43 c-1
24 4 53 11 65 l11 22 10 -21 c6 -16 3 -33 -11 -65z m-1028 59 c-4 -7 -23 -33
-42 -56 -25 -31 -37 -40 -43 -31 -9 16 7 49 25 49 7 0 23 11 36 25 26 27 35
32 24 13z m880 -9 c-4 -7 0 -9 12 -5 28 8 44 -6 54 -48 20 -90 -59 -196 -192
-259 -51 -24 -176 -52 -187 -42 -5 6 -11 3 72 44 66 33 117 79 117 107 0 8 7
14 15 14 23 0 18 -11 -21 -54 -19 -21 -33 -40 -31 -43 19 -18 145 76 173 128
29 57 6 159 -33 144 -13 -4 -14 -3 -3 10 14 17 35 21 24 4z m-705 -15 l23 -17
-29 -18 c-30 -19 -59 -24 -131 -21 -38 2 -42 4 -33 20 10 19 88 50 126 51 11
1 31 -6 44 -15z m-1286 -14 c-3 -11 -1 -33 5 -49 8 -23 7 -31 -4 -35 -8 -3
-14 -16 -14 -29 0 -14 -7 -41 -15 -61 -16 -38 -43 -47 -64 -23 -8 11 -5 19 14
37 27 25 47 82 38 106 -9 25 -20 15 -32 -31 -9 -34 -19 -49 -44 -62 -17 -9
-35 -16 -40 -15 -4 1 -15 -14 -24 -33 -20 -42 -43 -43 -54 -2 -8 29 -1 35 19
15 9 -9 12 -8 12 4 0 9 15 23 33 31 46 22 70 52 69 86 0 24 7 33 46 54 57 32
62 33 55 7z m1547 -32 c16 -18 26 -36 23 -41 -3 -5 -10 -3 -15 4 -8 11 -8 11
-4 -1 3 -8 9 -23 12 -32 3 -9 13 -19 23 -21 14 -4 14 -5 -1 -12 -26 -11 -51 2
-44 21 5 14 4 14 -7 5 -16 -13 -30 -1 -41 35 -5 15 -2 24 10 28 12 5 14 9 5
20 -10 11 -6 26 7 26 2 0 17 -14 32 -32z m170 6 c0 -8 -4 -12 -10 -9 -5 3 -10
10 -10 16 0 5 5 9 10 9 6 0 10 -7 10 -16z m-1570 -36 c-26 -21 -50 -24 -50 -5
0 17 40 36 59 29 11 -4 9 -10 -9 -24z m1221 15 c13 -16 12 -17 -3 -4 -10 7
-18 15 -18 17 0 8 8 3 21 -13z m379 7 c0 -5 -4 -10 -10 -10 -5 0 -10 5 -10 10
0 6 5 10 10 10 6 0 10 -4 10 -10z m-435 -12 c3 -7 6 -22 8 -33 1 -11 7 -26 11
-34 6 -10 5 -12 -2 -7 -7 4 -12 1 -12 -6 0 -19 -40 -17 -41 2 0 9 -4 6 -9 -7
-13 -33 -46 -30 -53 5 -4 17 -16 33 -32 40 -14 7 -23 17 -20 22 9 15 45 12 51
-5 4 -8 17 -13 35 -12 23 2 29 7 29 25 0 24 27 31 35 10z m-1045 -41 c0 -20
-25 1 -28 24 -2 23 -2 23 13 5 8 -11 15 -24 15 -29z m136 28 c-11 -8 -22 -12
-25 -9 -6 6 19 24 34 24 6 -1 1 -7 -9 -15z m89 -5 c10 -11 15 -20 11 -20 -10
0 -66 30 -66 35 0 13 39 2 55 -15z m370 0 c-12 -19 -41 -29 -56 -19 -12 8 -12
10 1 19 20 13 63 13 55 0z m940 -7 c12 -17 15 -17 37 2 22 19 22 19 -1 -8 -17
-18 -28 -24 -35 -17 -5 5 -20 10 -31 10 -13 0 -22 6 -22 15 0 21 37 19 52 -2z
m472 -5 c5 -7 6 -31 3 -53 -4 -34 -7 -37 -16 -22 -15 25 -37 13 -65 -36 -20
-35 -24 -56 -24 -127 0 -72 4 -92 25 -128 22 -38 25 -41 32 -22 9 24 36 27 45
4 4 -10 -1 -20 -11 -26 -11 -6 -15 -16 -11 -29 8 -25 -2 -24 -41 6 -46 35 -67
104 -62 208 2 61 9 93 26 125 27 51 27 58 5 42 -10 -7 1 6 24 29 45 44 55 48
70 29z m-1807 -8 c12 -7 12 -13 1 -33 -17 -33 -67 -42 -75 -14 -9 34 6 51 49
56 6 0 17 -3 25 -9z m475 0 c-3 -5 -10 -10 -16 -10 -5 0 -9 5 -9 10 0 6 7 10
16 10 8 0 12 -4 9 -10z m-1605 -15 c7 -9 10 -18 6 -22 -3 -3 -6 -1 -6 6 0 6
-10 16 -22 21 -16 6 -18 9 -7 9 9 1 22 -6 29 -14z m870 5 c0 -14 -24 -23 -47
-17 -15 3 -14 6 7 15 32 14 40 14 40 2z m1470 -9 c0 -5 -7 -11 -14 -14 -10 -4
-13 -1 -9 9 6 15 23 19 23 5z m148 -10 c6 -1 12 -5 12 -9 0 -10 -49 -13 -107
-6 -69 8 -51 26 20 20 34 -3 68 -5 75 -5z m-2191 -33 c-3 -8 -6 -5 -6 6 -1 11
2 17 5 13 3 -3 4 -12 1 -19z m526 -32 c28 -6 33 -20 18 -44 -12 -20 -71 12
-71 38 0 11 5 18 13 16 6 -3 24 -7 40 -10z m-83 -22 c0 -21 -17 -17 -23 5 -3
14 -1 18 9 14 8 -3 14 -11 14 -19z m1651 17 c43 22 51 5 15 -32 -40 -41 -91
-60 -138 -50 l-33 8 53 23 c29 12 58 32 64 44 7 13 13 16 15 9 4 -10 10 -10
24 -2z m-951 -16 c-11 -13 -8 -15 19 -16 17 -1 36 -3 41 -4 6 -1 16 -4 23 -5
6 -2 -28 -6 -78 -10 -51 -5 -94 -4 -99 1 -6 6 -3 9 8 9 9 0 15 4 11 10 -5 8
41 27 74 29 11 1 11 -2 1 -14z m-930 -22 c0 -10 -32 -43 -42 -43 -14 0 -9 22
10 36 19 15 32 18 32 7z m170 -38 c-13 -15 -40 -21 -40 -8 0 4 10 18 23 31 18
20 23 21 25 7 2 -9 -2 -22 -8 -30z m620 21 c0 -2 -28 -9 -62 -15 -35 -6 -74
-14 -88 -17 -19 -5 -22 -4 -14 5 16 17 164 42 164 27z m297 -2 c-3 -3 -12 -4
-19 -1 -8 3 -5 6 6 6 11 1 17 -2 13 -5z m-611 -57 c5 1 27 4 49 8 54 10 43 2
-39 -29 -41 -16 -73 -23 -79 -17 -5 5 3 25 20 49 l28 40 6 -27 c3 -14 9 -25
15 -24z m1766 -32 c-3 -63 1 -93 12 -117 20 -39 13 -49 -9 -14 -26 39 -31 216
-6 216 3 0 5 -38 3 -85z m-1187 60 c55 -8 104 -15 108 -15 5 0 5 -5 1 -11 -3
-6 -17 -8 -33 -4 -14 4 -37 9 -51 12 -38 9 -287 8 -349 0 -87 -12 -52 3 40 17
114 18 167 18 284 1z m1337 -66 c2 -45 0 -83 -4 -85 -15 -9 -27 36 -23 82 2
27 4 57 5 67 0 9 4 17 9 17 5 0 11 -36 13 -81z m-222 -5 c0 -84 18 -126 69
-159 46 -28 47 -32 25 -63 -14 -21 -14 -22 5 -22 25 0 51 26 51 50 0 10 -10
26 -22 34 -30 21 -14 20 22 -1 22 -13 28 -24 29 -52 1 -50 -37 -131 -62 -131
-53 0 -100 59 -125 155 -14 55 -16 269 -2 260 5 -3 10 -35 10 -71z m-1608 11
c-57 -20 -142 -56 -190 -80 -48 -25 -76 -35 -62 -24 55 47 277 138 335 138 11
0 -26 -15 -83 -34z m638 25 c0 -5 -7 -10 -16 -10 -8 0 -12 5 -9 10 3 6 10 10
16 10 5 0 9 -4 9 -10z m51 -18 c-7 -2 -18 1 -23 6 -8 8 -4 9 13 5 13 -4 18 -8
10 -11z m-1003 -16 c-16 -5 -28 -17 -27 -25 0 -11 2 -12 6 -3 2 6 9 12 14 12
6 0 7 -6 3 -12 -6 -10 -4 -10 8 0 11 9 18 10 23 2 3 -5 11 -10 17 -10 7 0 6 5
-1 14 -9 11 -9 16 0 22 7 4 14 3 16 -3 4 -12 43 -5 43 8 0 5 10 5 23 0 31 -12
26 -21 -30 -50 -58 -32 -133 -83 -179 -123 l-34 -30 1 33 c0 27 2 30 8 14 8
-19 8 -19 20 3 7 12 16 20 21 17 15 -9 19 9 5 22 -11 10 -17 9 -30 -4 -14 -13
-21 -14 -36 -5 -27 17 -32 15 -26 -10 l6 -23 -17 22 c-30 39 -123 67 -147 44
-14 -12 -85 -22 -85 -11 0 5 -3 15 -6 24 -4 11 -1 16 11 16 9 0 13 5 10 10 -3
6 0 11 7 11 29 3 34 5 59 22 33 22 99 34 99 18 0 -7 19 -11 49 -11 28 0 53 -5
56 -10 9 -15 63 -2 85 20 13 13 26 17 37 13 15 -6 14 -9 -9 -17z m1859 9 c0
-8 -4 -15 -9 -15 -10 0 -11 14 -1 23 9 10 10 9 10 -8z m-752 -33 c-3 -3 -11 0
-18 7 -9 10 -8 11 6 5 10 -3 15 -9 12 -12z m694 -8 c7 5 11 -3 10 -21 0 -15
-3 -22 -6 -15 -7 18 -23 4 -23 -21 -1 -47 -53 -83 -95 -67 -29 11 -25 30 6 30
26 0 69 47 69 75 0 26 11 39 21 24 4 -6 12 -8 18 -5z m59 -32 c1 -26 -4 -54
-10 -62 -8 -13 -9 -12 -5 1 3 9 1 21 -4 26 -7 7 8 83 17 83 1 0 2 -22 2 -48z
m-1063 23 c175 -26 264 -53 385 -116 42 -21 79 -39 84 -39 10 0 75 -60 163
-150 60 -61 112 -127 168 -212 25 -40 119 -301 129 -359 3 -19 12 -65 21 -104
45 -193 55 -273 59 -462 2 -105 7 -196 10 -201 3 -6 2 -13 -2 -16 -5 -3 -12
-40 -16 -83 -7 -71 -17 -129 -61 -336 -27 -132 -90 -286 -148 -362 -12 -16
-41 -55 -63 -85 -66 -87 -235 -251 -289 -280 -16 -9 -39 -21 -50 -28 -65 -38
-191 -92 -237 -101 -260 -52 -306 -53 -523 -3 -38 9 -97 26 -129 39 -33 13
-68 23 -77 23 -10 0 -22 6 -26 13 -4 7 -41 32 -81 55 -78 46 -202 156 -268
237 -39 48 -134 208 -156 263 -31 78 -91 255 -104 307 -9 33 -20 70 -26 82 -6
11 -8 25 -5 30 3 5 -1 65 -9 134 -15 133 -17 379 -3 469 4 30 10 87 12 125 2
39 7 77 10 85 3 8 13 47 22 85 93 412 212 614 471 806 202 149 492 221 739
184z m412 -21 c-3 -3 -12 -4 -19 -1 -8 3 -5 6 6 6 11 1 17 -2 13 -5z m285 -49
c5 -6 8 -6 8 1 0 6 8 10 18 9 33 -3 72 -17 72 -26 0 -5 5 -9 11 -9 5 0 7 6 4
13 -4 6 1 3 10 -8 9 -11 15 -32 12 -47 -2 -15 1 -26 6 -25 5 1 12 -4 15 -12 3
-8 0 -11 -7 -7 -6 4 -11 0 -11 -9 0 -11 5 -15 15 -11 22 8 18 -3 -7 -25 -13
-10 -18 -18 -13 -19 6 0 11 -9 11 -20 0 -10 -2 -17 -5 -15 -2 3 -10 -3 -17
-13 -12 -15 -15 -15 -24 -2 -5 8 -8 21 -5 28 3 7 0 10 -6 7 -10 -7 -129 110
-129 127 0 5 -3 7 -7 5 -13 -7 -46 30 -34 38 6 3 11 17 11 30 0 22 2 23 33 12
17 -7 35 -16 39 -22z m-84 4 c3 -12 2 -12 -6 0 -9 13 -13 13 -29 0 -17 -13
-17 -13 -4 4 16 20 33 18 39 -4z m-1507 -125 c-89 -84 -167 -180 -211 -259
-40 -71 -80 -154 -80 -166 0 -7 -3 -10 -6 -6 -3 3 2 27 12 54 51 139 159 286
294 402 39 34 73 61 76 61 3 0 -36 -39 -85 -86z m1944 77 c3 -5 1 -12 -4 -15
-5 -3 -11 1 -15 9 -6 16 9 21 19 6z m-15 -123 c-17 -73 -37 -118 -51 -118 -7
0 -9 3 -6 7 4 3 2 12 -4 19 -7 8 -7 14 1 19 5 3 10 15 10 26 0 10 4 19 8 19 4
0 9 9 10 20 4 43 6 50 14 50 4 0 8 8 8 17 0 13 3 14 11 6 8 -8 8 -25 -1 -65z
m56 -45 c-3 -10 -8 -40 -11 -68 -12 -117 -18 -151 -30 -167 -6 -10 -14 -15
-17 -12 -8 8 2 108 12 114 4 3 13 38 20 78 6 39 16 72 22 72 5 0 7 -8 4 -17z
m-236 -23 c0 -3 -6 -14 -13 -25 -10 -13 -16 -15 -21 -6 -11 17 -1 38 18 38 9
0 16 -3 16 -7z m13 -37 c-5 -12 -2 -15 10 -10 9 3 17 3 17 -2 0 -9 -41 -23
-48 -16 -4 4 17 45 23 45 2 0 1 -8 -2 -17z m364 -33 c-3 -11 -2 -20 2 -20 3 0
8 -82 9 -182 3 -209 10 -365 18 -390 3 -10 10 -18 15 -18 10 0 12 27 9 150 -6
287 0 482 15 477 12 -4 14 -30 18 -372 2 -154 7 -287 11 -297 4 -9 16 -18 26
-21 26 -7 47 -63 40 -107 -7 -46 -27 -48 -70 -8 -20 18 -31 30 -26 26 37 -28
21 18 -21 64 -41 44 -50 114 -58 481 -4 172 -2 237 6 237 6 0 9 -9 6 -20z
m-408 -25 c13 -20 22 -38 19 -40 -3 -3 -17 13 -32 35 -14 22 -23 40 -19 40 5
0 19 -16 32 -35z m307 -77 c-6 -102 -16 -141 -31 -126 -3 3 1 37 10 77 8 40
15 92 15 117 0 24 3 44 7 44 3 0 3 -51 -1 -112z m-227 76 c7 4 11 -1 11 -13 0
-28 -20 -37 -27 -12 -3 12 -10 21 -15 21 -5 0 -6 5 -2 11 5 8 9 8 14 -1 4 -7
13 -9 19 -6z m-2332 -76 c-3 -8 -6 -5 -6 6 -1 11 2 17 5 13 3 -3 4 -12 1 -19z
m2380 0 c-3 -8 -6 -5 -6 6 -1 11 2 17 5 13 3 -3 4 -12 1 -19z m-77 -19 c0 -6
-4 -7 -10 -4 -5 3 -10 11 -10 16 0 6 5 7 10 4 6 -3 10 -11 10 -16z m94 -66 c4
-13 5 -23 2 -23 -6 0 -36 60 -36 74 0 14 26 -24 34 -51z m-54 -16 c0 -5 -4 -5
-10 -2 -5 3 -10 14 -10 23 0 15 2 15 10 2 5 -8 10 -19 10 -23z m-2333 -28
c-11 -28 -12 -29 -15 -10 -4 28 5 54 17 47 5 -4 4 -19 -2 -37z m2441 -89 c0
-20 -1 -21 -5 -5 -3 10 -12 29 -20 41 -11 18 -11 23 -1 26 14 5 26 -23 26 -62z
m111 56 c10 -11 9 -21 -4 -45 -19 -37 -23 -38 -35 -7 -18 48 11 86 39 52z
m-2334 -26 c-4 -12 -9 -19 -12 -17 -3 3 -2 15 2 27 4 12 9 19 12 17 3 -3 2
-15 -2 -27z m-36 -105 c-11 -39 -24 -92 -30 -118 -6 -27 -13 -46 -15 -44 -6 6
15 103 38 175 27 84 32 75 7 -13z m2280 8 c0 -25 -1 -26 -9 -8 -12 27 -12 35
0 35 6 0 10 -12 9 -27z m101 -6 c0 -14 -18 -43 -22 -37 -19 30 -28 53 -23 60
8 13 45 -6 45 -23z m-57 -157 c3 -11 1 -18 -4 -14 -5 3 -9 12 -9 20 0 20 7 17
13 -6z m-2381 -82 c-6 -6 -7 0 -4 19 5 21 7 23 10 9 2 -10 0 -22 -6 -28z
m2501 -34 c4 -23 3 -24 -10 -11 -9 8 -12 20 -9 26 10 16 13 14 19 -15z m-2516
-46 c-3 -8 -6 -5 -6 6 -1 11 2 17 5 13 3 -3 4 -12 1 -19z m2360 -40 c-3 -8 -6
-5 -6 6 -1 11 2 17 5 13 3 -3 4 -12 1 -19z m79 -26 c-18 -16 -18 -16 -6 6 6
13 14 21 18 18 3 -4 -2 -14 -12 -24z m158 -4 c8 -11 11 -29 8 -40 -4 -18 -2
-20 20 -15 l25 7 -12 -61 c-16 -74 -31 -94 -41 -53 -3 16 -13 34 -20 40 -8 6
-15 34 -17 62 -2 29 -6 55 -10 58 -4 4 -7 13 -7 20 0 18 38 5 54 -18z m-75
-171 c0 -21 -1 -21 -9 -2 -12 28 -12 37 0 30 6 -3 10 -16 9 -28z m214 -37 c25
0 21 -22 -8 -44 l-26 -19 22 -23 c27 -29 49 -21 49 18 0 53 25 26 28 -30 3
-56 -1 -61 -31 -35 -18 17 -20 17 -39 -10 -22 -30 -53 -36 -62 -12 -3 8 -10
15 -15 15 -7 0 -7 -9 0 -27 16 -42 -9 -172 -31 -158 -5 3 -10 -1 -10 -9 0 -8
-5 -18 -11 -21 -13 -8 -61 34 -53 47 3 4 -2 15 -10 24 -9 8 -16 23 -16 32 1
11 6 8 16 -10 8 -16 19 -28 24 -28 14 0 21 18 10 25 -5 3 -10 19 -10 35 0 16
-4 32 -10 35 -15 9 -12 19 11 49 17 21 24 24 40 16 10 -6 19 -7 19 -2 0 5 -12
14 -27 21 -27 12 -27 13 -8 27 10 8 21 11 24 6 11 -14 63 -44 68 -38 3 3 -8
19 -26 35 -17 16 -31 32 -31 35 0 17 57 56 75 51 11 -3 28 -5 38 -5z m-2989
-182 c-5 -8 -2 -9 9 -5 14 5 16 1 12 -28 -3 -24 0 -34 8 -32 8 1 11 -10 9 -35
-2 -32 0 -38 18 -38 24 0 25 -8 5 -37 -8 -12 -12 -28 -9 -37 8 -20 -10 -20
-41 0 -39 25 -59 129 -34 176 10 18 8 19 -13 13 l-23 -6 24 20 c25 23 47 28
35 9z m3024 -5 c-2 -9 -8 -18 -15 -20 -7 -3 -9 3 -6 16 6 25 26 28 21 4z
m-388 -145 c0 -18 -2 -20 -9 -8 -6 8 -7 18 -5 22 9 14 14 9 14 -14z m317 -53
c7 -19 -29 -117 -45 -123 -8 -2 -10 3 -6 15 5 14 4 15 -4 4 -6 -8 -8 -19 -6
-26 5 -11 -23 -44 -64 -77 -22 -18 -22 -17 -17 18 5 40 20 91 44 145 21 48 85
76 98 44z m-2747 -105 c0 -5 -5 -10 -11 -10 -5 0 -7 5 -4 10 3 6 8 10 11 10 2
0 4 -4 4 -10z m8 -66 c-3 -14 -5 -12 -10 9 -3 19 -2 25 4 19 6 -6 8 -18 6 -28z
m2389 -26 c-3 -7 -5 -2 -5 12 0 14 2 19 5 13 2 -7 2 -19 0 -25z m-2372 -38 c3
-19 3 -32 0 -28 -4 3 -9 21 -12 40 -6 43 4 33 12 -12z m2367 -5 c-2 -14 -6
-25 -8 -25 -2 0 -4 11 -4 25 0 14 4 25 9 25 4 0 6 -11 3 -25z m119 -111 c-15
-157 -31 -239 -46 -239 -17 0 -17 53 -1 103 16 49 21 74 31 151 19 141 29 131
16 -15z m92 79 c-1 -21 -5 -69 -8 -108 -4 -38 -6 -99 -5 -135 0 -36 1 -72 1
-80 -3 -227 5 -445 20 -570 6 -52 13 -108 14 -125 2 -16 4 -33 4 -37 1 -4 8
-5 17 -1 10 4 17 -1 21 -16 3 -11 9 -21 14 -21 5 0 6 -6 3 -14 -3 -7 2 -20 10
-29 21 -21 20 -27 -3 -27 -13 0 -29 16 -45 43 -14 23 -26 38 -27 32 -8 -107
12 -246 48 -336 19 -49 28 -49 29 -1 3 162 7 182 30 182 34 0 55 -41 50 -97
-2 -27 -4 -54 -5 -60 -1 -7 -6 -12 -12 -10 -6 1 -14 -4 -16 -10 -3 -7 0 -13 7
-13 6 0 8 -5 4 -11 -4 -7 -1 -10 6 -7 8 2 19 19 25 38 8 23 14 30 19 21 9 -14
-12 -71 -25 -71 -5 0 -9 -6 -9 -13 0 -21 -42 -55 -47 -39 -3 6 -14 12 -24 12
-11 0 -29 4 -39 10 -36 19 -66 154 -75 340 -3 58 -7 139 -10 180 -3 41 -8 217
-10 390 -6 339 4 580 25 605 7 8 13 15 14 15 0 0 0 -17 -1 -37z m-233 -53 c-6
-23 -13 -40 -15 -38 -2 2 1 23 7 46 6 24 13 41 15 38 2 -2 -1 -23 -7 -46z
m295 -333 c-4 -395 3 -499 34 -474 12 10 14 9 8 -7 -4 -10 -2 -34 5 -52 14
-38 6 -53 -17 -34 -37 30 -48 73 -53 200 -6 149 -8 740 -4 745 2 2 10 1 17 -1
11 -5 13 -76 10 -377z m-2595 221 c12 -46 79 -200 118 -272 20 -38 25 -52 14
-48 -11 4 -13 2 -7 -8 5 -9 4 -11 -3 -6 -7 4 -12 15 -12 25 0 10 -11 40 -25
67 -14 27 -25 54 -25 59 0 6 -9 16 -20 23 -12 7 -18 17 -15 21 3 5 -4 38 -16
73 -28 86 -48 169 -48 193 1 18 8 -6 39 -127z m2281 35 c-8 -15 -10 -15 -11
-2 0 17 10 32 18 25 2 -3 -1 -13 -7 -23z m-2371 -64 c0 -17 -4 -28 -10 -24 -5
3 -10 17 -10 31 0 13 5 24 10 24 6 0 10 -14 10 -31z m2347 -11 c-3 -8 -6 -5
-6 6 -1 11 2 17 5 13 3 -3 4 -12 1 -19z m-2339 -69 c-2 -6 -8 -10 -13 -10 -5
0 -11 4 -13 10 -2 6 4 11 13 11 9 0 15 -5 13 -11z m2272 -104 c-44 -91 -132
-213 -201 -280 -52 -50 -41 -29 26 51 60 70 135 183 177 267 47 91 44 59 -2
-38z m210 21 c0 -8 3 -23 6 -33 5 -15 4 -15 -5 -3 -9 12 -11 11 -11 -10 0 -41
-11 -70 -26 -70 -16 0 -20 9 -28 63 -4 33 -2 39 22 52 34 18 42 18 42 1z
m-2405 -33 c-3 -10 -10 -36 -15 -58 -28 -131 -43 -176 -53 -166 -7 7 -7 14 1
24 6 7 14 44 18 82 8 76 28 135 45 135 7 0 8 -7 4 -17z m-54 -30 c-12 -20 -14
-14 -5 12 4 9 9 14 11 11 3 -2 0 -13 -6 -23z m2403 -89 c16 -41 3 -75 -66
-179 -62 -93 -124 -145 -170 -145 -20 0 -31 7 -38 23 -6 12 -15 30 -22 39 -21
30 1 33 31 4 26 -25 32 -27 68 -17 22 6 51 23 64 38 30 34 89 119 89 128 0 4
9 18 19 32 22 27 18 53 -8 53 -10 0 -31 -25 -53 -64 -37 -64 -98 -136 -114
-136 -5 0 -16 5 -24 10 -12 8 -7 17 30 49 25 21 49 36 54 33 5 -3 6 0 2 6 -4
6 2 17 14 24 11 7 20 17 20 23 0 5 9 21 20 35 11 14 20 33 20 43 0 23 55 24
64 1z m-2294 -26 c0 -4 -4 -8 -9 -8 -14 0 -43 -70 -44 -107 -1 -25 -5 -33 -17
-31 -16 3 -28 48 -12 48 5 0 7 10 5 23 -5 31 29 83 56 83 11 0 21 -4 21 -8z
m285 -216 c-6 -7 -55 22 -55 33 0 7 -12 30 -26 51 -19 30 -13 25 30 -21 30
-33 53 -61 51 -63z m2003 36 c-1 -36 -2 -43 -5 -20 -2 17 -9 32 -14 32 -5 0
-4 9 3 20 7 11 14 20 15 20 2 0 2 -24 1 -52z m-414 -13 c-16 -13 -33 -21 -38
-18 -5 3 3 13 18 22 14 8 26 19 26 24 0 4 5 5 11 1 7 -4 1 -15 -17 -29z
m-2169 15 c3 -5 1 -10 -4 -10 -6 0 -11 5 -11 10 0 6 2 10 4 10 3 0 8 -4 11
-10z m463 -25 c-3 -3 -9 2 -12 12 -6 14 -5 15 5 6 7 -7 10 -15 7 -18z m-503
-23 c-4 -20 0 -35 15 -52 29 -34 43 -95 38 -170 -6 -74 -25 -121 -72 -176 -29
-34 -35 -36 -61 -27 -24 7 -31 16 -33 41 -4 38 3 40 35 10 22 -21 23 -21 44
-2 12 10 26 28 31 39 5 11 16 33 25 49 24 44 21 142 -5 193 -27 52 -37 58 -65
40 -27 -17 -60 -9 -48 12 5 8 7 20 4 28 -11 29 6 43 52 43 46 0 46 0 40 -28z
m670 -30 c-1 -1 -14 4 -29 12 -16 8 -22 16 -15 18 11 4 49 -22 44 -30z m1469
7 c-16 -17 -45 -40 -64 -50 -19 -11 -50 -29 -69 -40 -57 -34 -44 -15 17 24 31
20 73 50 92 66 46 40 62 39 24 0z m-1744 0 c0 -6 -8 -18 -17 -27 -16 -16 -16
-16 -10 1 4 10 7 23 7 28 0 5 5 9 10 9 6 0 10 -5 10 -11z m2227 -36 c-3 -10
-5 -4 -5 12 0 17 2 24 5 18 2 -7 2 -21 0 -30z m-1843 11 c3 -8 2 -12 -4 -9 -6
3 -10 10 -10 16 0 14 7 11 14 -7z m-53 -31 c21 -23 25 -30 9 -18 -38 30 -62
55 -52 55 4 0 24 -17 43 -37z m154 -33 c3 -6 -1 -7 -9 -4 -18 7 -21 14 -7 14
6 0 13 -4 16 -10z m61 -31 c9 -15 -23 -10 -35 5 -10 12 -8 13 9 9 11 -3 23 -9
26 -14z m1014 2 c0 -5 -9 -11 -20 -14 -22 -6 -28 8 -7 16 19 8 27 8 27 -2z
m665 -10 c-2 -5 -5 -43 -6 -85 -1 -42 -6 -79 -12 -83 -7 -4 -8 10 -4 42 4 26
7 70 7 97 0 31 4 47 10 43 6 -4 8 -10 5 -14z m-2008 -7 c-3 -3 -12 -4 -19 -1
-8 3 -5 6 6 6 11 1 17 -2 13 -5z m572 -70 c8 -2 11 -7 9 -10 -5 -5 -99 18
-138 33 -8 4 -18 5 -22 5 -5 -1 -8 2 -8 7 0 5 -16 12 -35 15 -19 4 -35 11 -35
16 0 5 48 -7 108 -27 59 -19 113 -37 121 -39z m681 44 c-152 -68 -356 -98
-536 -80 -64 6 -119 14 -122 17 -14 13 11 15 64 6 91 -17 267 -13 374 8 86 17
205 53 218 66 3 3 15 5 26 4 14 0 6 -7 -24 -21z m-1510 -28 c0 -5 -4 -10 -10
-10 -5 0 -10 5 -10 10 0 6 5 10 10 10 6 0 10 -4 10 -10z m1837 4 c-3 -3 -12
-4 -19 -1 -8 3 -5 6 6 6 11 1 17 -2 13 -5z m306 -32 c10 -11 13 -22 7 -31 -4
-8 -5 -24 0 -35 13 -35 3 -156 -14 -175 -9 -10 -16 -27 -16 -39 0 -12 -4 -22
-10 -22 -5 0 -10 4 -10 9 0 5 -3 17 -7 27 -4 12 -3 15 5 10 8 -5 12 1 12 18 0
14 4 26 8 26 4 0 13 14 19 31 12 32 -1 76 -43 140 -31 48 11 83 49 41z m-2213
-2 c0 -5 -4 -10 -10 -10 -5 0 -10 5 -10 10 0 6 5 10 10 10 6 0 10 -4 10 -10z
m280 0 c24 -1 24 -1 -5 -15 -29 -13 -29 -13 23 -10 28 2 55 -1 58 -6 3 -5 10
-7 15 -4 5 4 9 -1 9 -11 0 -13 -3 -14 -14 -5 -7 6 -20 9 -27 7 -8 -3 -32 -8
-53 -11 -49 -7 -119 -41 -148 -72 -12 -13 -27 -23 -34 -23 -22 0 -4 33 40 73
26 24 34 35 21 32 -20 -7 -20 -6 -1 9 11 9 15 16 8 16 -29 0 -121 -24 -154
-41 -46 -24 -108 -77 -108 -93 0 -7 -11 -26 -25 -42 -14 -16 -33 -44 -42 -63
-21 -43 -28 -26 -10 25 33 97 124 194 204 216 58 16 144 27 183 22 19 -2 46
-4 60 -4z m1648 -15 c-4 -11 -38 -15 -38 -4 0 8 21 18 33 15 5 -1 7 -6 5 -11z
m94 8 c-6 -2 -10 -8 -7 -12 2 -5 -8 -13 -23 -20 -25 -11 -26 -10 -8 4 11 8 14
15 8 15 -7 0 -12 5 -12 10 0 6 12 10 28 9 15 0 21 -3 14 -6z m108 -11 c0 -4
-9 -13 -20 -20 -18 -11 -20 -10 -20 8 0 13 7 20 20 20 11 0 20 -3 20 -8z
m-1383 -8 c-3 -3 -12 -4 -19 -1 -8 3 -5 6 6 6 11 1 17 -2 13 -5z m694 -30
c-18 -8 -36 -13 -39 -10 -6 7 37 25 58 25 8 -1 0 -7 -19 -15z m349 6 c0 -5 -5
-10 -11 -10 -5 0 -7 5 -4 10 3 6 8 10 11 10 2 0 4 -4 4 -10z m-60 -9 c0 -5 -7
-17 -16 -25 -14 -15 -14 -16 3 -17 10 0 13 -3 6 -5 -7 -3 -20 -1 -29 4 -15 8
-15 11 5 31 23 23 31 26 31 12z m-1860 -10 c0 -5 -9 -11 -21 -14 -16 -4 -18
-3 -8 9 13 16 29 19 29 5z m470 -1 c0 -5 16 -10 35 -10 30 0 45 -10 104 -69
61 -61 69 -74 81 -129 13 -62 7 -112 -21 -183 -21 -52 -82 -59 -119 -13 -13
14 -13 18 -1 22 10 3 11 6 1 12 -7 5 -10 16 -6 25 4 13 13 16 31 11 14 -3 36
-9 49 -12 29 -7 36 8 43 101 l6 70 -42 52 c-63 80 -101 94 -193 75 -36 -7 -50
-6 -58 3 -12 14 1 28 41 44 32 13 49 13 49 1z m1695 -1 c4 -5 1 -18 -7 -27 -8
-9 -20 -29 -28 -44 -16 -32 -15 -33 -23 8 -8 44 39 95 58 63z m-730 -21 c-16
-4 -31 -5 -33 -3 -8 7 42 23 53 17 5 -3 -4 -9 -20 -14z m219 -3 c-4 -8 -10
-12 -15 -9 -11 6 -2 24 11 24 5 0 7 -7 4 -15z m-64 -10 c0 -8 -7 -15 -15 -15
-16 0 -20 12 -8 23 11 12 23 8 23 -8z m-803 -55 c4 -12 7 -11 13 5 5 11 9 14
9 8 2 -22 21 -14 21 8 0 14 5 19 18 17 24 -5 22 -80 -3 -108 -18 -20 -18 -20
-37 7 l-18 28 6 -47 c9 -63 -7 -62 -40 2 -22 43 -24 51 -11 56 8 4 15 18 15
33 0 33 14 51 18 24 2 -10 6 -25 9 -33z m441 43 c-10 -2 -26 -2 -35 0 -10 3
-2 5 17 5 19 0 27 -2 18 -5z m259 -7 c-3 -6 -9 -10 -15 -9 -6 2 -23 -9 -37
-23 -15 -14 -29 -24 -32 -21 -7 8 57 64 74 64 7 0 12 -5 10 -11z m-1598 -22
c-13 -14 -33 -30 -44 -36 -11 -5 -2 6 20 26 47 42 58 46 24 10z m1914 -11 c9
-21 21 -55 28 -75 9 -26 23 -42 46 -53 24 -12 33 -23 33 -40 0 -33 -56 -45
-93 -20 -22 14 -72 94 -64 102 2 1 17 3 35 5 18 1 32 3 32 3 0 1 -11 16 -25
35 -24 33 -34 80 -17 80 5 0 16 -17 25 -37z m82 1 c-23 -17 -41 -18 -51 -2
-12 19 25 39 49 26 20 -10 20 -11 2 -24z m-225 13 c0 -21 -37 -50 -55 -44 -8
4 -15 16 -15 28 0 14 5 19 13 16 8 -3 20 -1 28 4 20 12 29 11 29 -4z m-113
-59 c14 -16 14 -18 1 -23 -12 -5 -13 -14 -6 -48 5 -23 10 -51 10 -63 0 -26
-30 -74 -47 -74 -12 0 -50 84 -57 125 -2 10 -14 22 -27 25 -13 3 -28 15 -32
28 -10 26 6 29 35 7 31 -23 47 -19 42 11 -4 21 0 27 25 36 16 5 30 15 30 21 1
7 4 3 6 -8 3 -11 12 -28 20 -37z m433 36 c0 -31 -60 -74 -92 -67 -25 6 -23 33
2 33 11 0 23 7 26 15 4 10 13 13 25 10 11 -4 19 -2 19 4 0 6 5 11 10 11 6 0
10 -3 10 -6z m321 -16 c11 -21 11 -22 -4 -9 -10 7 -17 17 -17 22 0 15 9 10 21
-13z m-66 -3 c-11 -8 -28 -22 -38 -32 -18 -17 -18 -17 -6 9 11 24 25 34 54 37
6 0 1 -6 -10 -14z m-1538 -17 c-3 -8 -6 -5 -6 6 -1 11 2 17 5 13 3 -3 4 -12 1
-19z m209 -54 c-7 -17 -36 -19 -36 -2 0 6 6 27 12 46 l13 34 8 -32 c4 -18 6
-39 3 -46z m134 55 c0 -19 4 -21 31 -15 l32 6 -27 -26 c-14 -15 -26 -33 -26
-41 0 -8 -7 -31 -16 -50 -12 -24 -19 -31 -25 -22 -4 8 -4 18 1 24 18 22 30 93
20 119 -6 17 -6 26 0 26 6 0 10 -10 10 -21z m1414 6 c-4 -8 -8 -15 -10 -15 -2
0 -4 7 -4 15 0 8 4 15 10 15 5 0 7 -7 4 -15z m-1201 -7 c9 0 17 -3 17 -9 0
-13 -37 -15 -87 -4 -40 9 -26 26 15 19 20 -4 45 -7 55 -6z m752 -30 c-8 -19
-57 -55 -81 -60 -10 -2 -20 4 -21 12 -2 10 16 24 49 41 29 14 54 25 56 24 1
-1 0 -9 -3 -17z m273 5 c2 -7 -3 -13 -12 -13 -9 0 -16 -4 -16 -10 0 -5 -4 -10
-10 -10 -11 0 -14 33 -3 44 10 10 36 3 41 -11z m-1981 -21 c10 -6 -9 -11 -58
-15 -43 -3 -91 -14 -114 -25 -44 -22 -55 -21 -34 4 36 43 155 64 206 36z
m2099 -24 c-12 -95 -25 -140 -47 -164 -22 -23 -49 -32 -49 -16 0 20 27 62 48
73 15 8 23 22 24 43 0 17 2 42 2 56 2 25 13 50 22 50 3 0 2 -19 0 -42z m-206
26 c0 -3 -10 -14 -22 -25 -19 -15 -20 -18 -6 -19 9 0 28 4 42 10 40 15 33 -14
-9 -39 -30 -18 -35 -25 -35 -59 0 -21 5 -43 12 -50 8 -8 9 -12 1 -12 -15 0
-35 61 -38 114 -2 30 3 47 18 64 20 21 37 29 37 16z m291 -161 c6 -18 15 -33
20 -33 5 0 9 -8 9 -17 0 -14 2 -15 9 -4 12 19 25 -4 13 -24 -7 -14 -11 -14
-29 2 -31 26 -53 104 -52 181 l2 67 8 -70 c5 -38 14 -85 20 -102z m-2056 147
c3 -5 -1 -10 -10 -10 -9 0 -13 5 -10 10 3 6 8 10 10 10 2 0 7 -4 10 -10z m781
-44 c6 -25 -19 -96 -38 -107 -18 -12 -30 1 -17 17 8 10 8 14 0 14 -6 0 -16
-11 -21 -24 -8 -23 -28 -42 -34 -35 -2 2 -7 15 -10 29 -6 18 -5 21 3 10 5 -8
13 -12 16 -8 4 3 -3 16 -14 27 -23 23 -27 46 -11 56 6 3 10 15 10 26 0 21 10
25 27 8 8 -8 16 -6 30 8 22 24 50 14 59 -21z m139 19 c-3 -14 -7 -36 -10 -49
-3 -14 -1 -28 5 -31 14 -9 12 -25 -2 -25 -16 1 -88 67 -88 81 0 5 4 8 9 4 5
-3 16 0 23 7 18 16 51 37 61 37 4 1 5 -10 2 -24z m340 4 c4 -5 -3 -9 -14 -9
-11 0 -23 -4 -26 -10 -11 -18 -26 -11 -16 8 10 19 47 27 56 11z m-1651 -7 c9
-14 -5 -50 -22 -57 -23 -8 -36 9 -23 32 6 10 11 12 11 6 0 -7 5 -13 11 -13 6
0 8 9 4 20 -6 19 9 28 19 12z m556 -2 c0 -5 -2 -10 -4 -10 -3 0 -8 5 -11 10
-3 6 -1 10 4 10 6 0 11 -4 11 -10z m1695 2 c-5 -4 -11 -14 -13 -22 -1 -8 -7
-25 -13 -36 -12 -23 -8 -84 6 -119 7 -18 5 -17 -18 4 -20 18 -27 34 -27 62 0
63 30 119 64 119 7 0 8 -3 1 -8z m-1358 -15 c3 -4 -11 -14 -33 -23 -72 -30
-91 -33 -114 -17 -21 15 -21 16 -4 26 10 6 34 12 53 14 19 2 37 6 39 8 6 5 51
-1 59 -8z m1157 -57 c-1 -14 -3 -28 -3 -32 -2 -14 -45 -48 -61 -48 -23 0 -53
-56 -46 -86 8 -29 36 -32 43 -5 3 12 11 17 19 14 9 -3 14 2 14 17 0 11 5 18
10 15 16 -10 11 -50 -9 -73 -42 -49 -99 -6 -87 65 3 21 6 46 7 55 0 21 36 43
61 40 23 -4 39 30 32 70 -6 31 -5 32 9 13 8 -11 13 -31 11 -45z m33 18 c-3 -7
-5 -2 -5 12 0 14 2 19 5 13 2 -7 2 -19 0 -25z m-1522 14 c6 -4 11 -15 13 -25
2 -14 -2 -16 -23 -11 -19 5 -32 1 -51 -17 -28 -26 -30 -20 -9 21 18 36 47 49
70 32z m1109 -31 c3 -4 -6 -23 -19 -41 -18 -24 -25 -47 -25 -78 0 -48 -15 -49
-25 -2 -4 17 -11 30 -16 30 -20 0 -7 43 20 71 29 29 55 37 65 20z m-1229 -11
c3 -5 1 -10 -4 -10 -6 0 -11 5 -11 10 0 6 2 10 4 10 3 0 8 -4 11 -10z m811
-35 c10 -8 15 -14 9 -14 -5 0 -19 6 -29 14 -11 8 -15 15 -10 15 6 0 19 -7 30
-15z m-1366 -4 c0 -5 -7 -14 -15 -21 -12 -10 -15 -10 -15 2 0 8 3 18 7 21 9
10 23 9 23 -2z m1057 -8 c4 -12 -36 -25 -50 -16 -12 7 23 35 37 30 5 -2 11 -8
13 -14z m33 13 c0 -3 -4 -8 -10 -11 -5 -3 -10 -1 -10 4 0 6 5 11 10 11 6 0 10
-2 10 -4z m293 -33 l32 -17 -30 -7 c-16 -4 -25 -7 -20 -8 6 -1 1 -7 -10 -13
-27 -16 -125 -22 -125 -8 0 16 21 54 34 62 20 14 86 8 119 -9z m1303 -10 c-7
-7 -26 7 -26 19 0 6 6 6 15 -2 9 -7 13 -15 11 -17z m-35 0 c13 -15 12 -15 -8
-4 -24 12 -29 21 -14 21 5 0 15 -7 22 -17z m-800 -46 c-17 -17 -33 -28 -37
-25 -3 4 4 16 15 27 12 12 21 25 21 31 0 5 7 7 16 3 13 -5 10 -11 -15 -36z
m639 31 c0 -7 -11 -26 -25 -42 -31 -36 -32 -29 -4 18 22 38 29 44 29 24z
m-110 -18 c0 -5 -5 -10 -11 -10 -5 0 -7 5 -4 10 3 6 8 10 11 10 2 0 4 -4 4
-10z m-1487 -42 c-18 -48 -55 -88 -80 -88 -21 0 -53 29 -53 49 0 12 3 12 12 3
20 -20 33 -14 53 26 18 36 18 36 25 12 l6 -25 24 33 c13 17 25 32 27 32 1 0
-5 -19 -14 -42z"/>
<path d="M372 2485 c-16 -83 -15 -84 7 -82 16 1 18 10 19 64 0 34 3 67 7 72 3
6 0 11 -7 11 -9 0 -18 -24 -26 -65z"/>
<path d="M1581 4263 c-1 -6 -4 -20 -7 -30 -5 -17 -5 -17 6 0 6 10 9 23 6 30
-3 9 -5 9 -5 0z"/>
<path d="M545 3650 c4 -6 2 -17 -5 -25 -14 -17 6 -33 22 -17 12 12 1 52 -13
52 -6 0 -7 -5 -4 -10z"/>
<path d="M1096 3772 c-3 -5 1 -15 9 -22 16 -14 20 -3 6 19 -5 8 -11 9 -15 3z"/>
<path d="M1017 3753 c-4 -3 -7 -11 -7 -17 0 -6 5 -5 12 2 6 6 9 14 7 17 -3 3
-9 2 -12 -2z"/>
<path d="M1708 3740 c-98 -16 -251 -68 -332 -115 -192 -109 -343 -274 -466
-508 -252 -480 -260 -1122 -19 -1601 91 -182 214 -343 327 -429 112 -85 294
-176 382 -191 l35 -6 -35 14 c-115 44 -232 118 -318 200 -73 68 -243 338 -223
351 6 3 4 17 -5 33 -7 15 -14 34 -14 42 0 9 -6 24 -14 35 -7 11 -16 31 -19 45
-3 14 -19 61 -35 106 -38 100 -78 279 -91 406 -33 299 18 608 143 874 265 560
789 757 1226 461 112 -76 257 -239 346 -387 21 -36 55 -86 76 -112 67 -82 162
-373 188 -578 8 -61 10 -140 6 -220 -15 -271 -62 -460 -172 -685 -44 -90 -17
-56 34 44 83 160 132 319 173 566 47 283 1 646 -118 922 -191 445 -537 726
-908 738 -60 2 -136 0 -167 -5z"/>
<path d="M2567 3710 c-5 -21 27 -48 37 -31 3 5 -1 12 -10 15 -9 4 -14 13 -10
21 3 8 2 15 -3 15 -5 0 -11 -9 -14 -20z"/>
<path d="M2600 3709 c0 -5 5 -7 10 -4 6 3 10 8 10 11 0 2 -4 4 -10 4 -5 0 -10
-5 -10 -11z"/>
<path d="M2640 3699 c0 -5 5 -7 10 -4 6 3 10 8 10 11 0 2 -4 4 -10 4 -5 0 -10
-5 -10 -11z"/>
<path d="M2610 3660 c-9 -6 -10 -10 -3 -10 6 0 15 5 18 10 8 12 4 12 -15 0z"/>
<path d="M2653 3645 c0 -8 4 -12 9 -9 4 3 8 9 8 15 0 5 -4 9 -8 9 -5 0 -9 -7
-9 -15z"/>
<path d="M2705 3580 c-3 -5 -1 -10 4 -10 6 0 11 5 11 10 0 6 -2 10 -4 10 -3 0
-8 -4 -11 -10z"/>
<path d="M2735 3571 c-3 -5 -1 -12 5 -16 5 -3 10 1 10 9 0 18 -6 21 -15 7z"/>
<path d="M2739 3523 c-13 -16 -12 -17 4 -4 16 13 21 21 13 21 -2 0 -10 -8 -17
-17z"/>
<path d="M3300 2290 c0 -5 5 -10 10 -10 6 0 10 5 10 10 0 6 -4 10 -10 10 -5 0
-10 -4 -10 -10z"/>
<path d="M3221 2258 c-10 -27 -4 -41 11 -32 8 5 9 1 3 -12 -13 -32 -15 -82 -2
-87 9 -3 12 17 13 74 1 78 -9 100 -25 57z"/>
<path d="M365 2100 c-3 -6 1 -13 10 -16 19 -8 30 0 20 15 -8 14 -22 14 -30 1z"/>
<path d="M2006 566 c3 -8 13 -17 22 -21 13 -5 13 -2 -3 15 -21 24 -26 25 -19
6z"/>
<path d="M2005 469 c-3 -9 -1 -26 4 -40 6 -16 10 -18 10 -7 1 9 7 18 14 21 9
3 7 9 -5 23 -15 15 -18 15 -23 3z"/>
<path d="M1088 4483 c6 -2 18 -2 25 0 6 3 1 5 -13 5 -14 0 -19 -2 -12 -5z"/>
<path d="M2336 4472 c-3 -5 8 -6 25 -4 16 2 29 6 29 8 0 8 -49 4 -54 -4z"/>
<path d="M1083 4425 c-8 -21 6 -33 17 -15 5 8 12 11 16 7 4 -3 1 -13 -6 -22
-16 -20 -6 -20 14 0 8 9 13 22 10 30 -8 20 -43 19 -51 0z"/>
<path d="M1376 4431 c-3 -4 6 -6 19 -3 14 2 25 6 25 8 0 8 -39 4 -44 -5z"/>
<path d="M995 4395 c-3 -8 -7 -22 -10 -30 -2 -8 -16 -15 -31 -15 l-26 0 28
-29 c29 -31 55 -32 32 -3 -9 12 -6 11 10 -2 19 -17 22 -17 22 -3 0 10 3 17 8
17 4 0 21 12 37 26 28 23 28 24 6 18 -14 -4 -21 -2 -18 3 4 6 -5 15 -19 22
-32 14 -34 14 -39 -4z"/>
<path d="M3052 4359 c-33 -30 -94 -40 -107 -19 -3 6 -12 10 -18 10 -24 -1 39
-40 63 -40 24 0 110 63 100 73 -3 3 -20 -8 -38 -24z"/>
<path d="M783 4292 c-40 -36 -73 -85 -73 -105 1 -19 2 -20 13 -7 17 21 53 48
43 33 -4 -7 -3 -13 3 -13 5 0 22 -11 36 -24 18 -17 22 -26 13 -29 -8 -3 -6 -6
5 -6 25 -1 32 26 12 49 -14 16 -15 25 -7 50 19 52 -10 84 -45 52z"/>
<path d="M336 3941 c4 -19 0 -38 -11 -55 l-18 -27 26 10 c22 9 29 6 47 -16 11
-14 20 -33 20 -42 0 -14 -2 -14 -10 -1 -8 12 -10 11 -10 -6 0 -46 13 -115 20
-103 5 6 11 -11 15 -39 4 -28 4 -55 1 -61 -4 -5 -1 -13 5 -17 9 -5 11 24 5
121 -6 112 -10 134 -31 169 -14 23 -30 53 -37 69 -16 36 -29 35 -22 -2z"/>
<path d="M306 3780 c3 -14 17 -34 29 -45 13 -11 26 -29 28 -40 4 -15 5 -14 6
6 1 18 -11 40 -35 65 -31 34 -35 36 -28 14z"/>
<path d="M362 3575 c0 -16 2 -22 5 -12 2 9 2 23 0 30 -3 6 -5 -1 -5 -18z"/>
<path d="M412 3443 c-1 -71 1 -123 6 -116 10 16 14 243 4 243 -5 0 -9 -57 -10
-127z"/>
<path d="M351 3284 c0 -11 3 -14 6 -6 3 7 2 16 -1 19 -3 4 -6 -2 -5 -13z"/>
<path d="M407 3228 c-5 -73 -3 -87 10 -74 9 8 10 124 2 138 -3 5 -9 -23 -12
-64z"/>
<path d="M351 3244 c0 -11 3 -14 6 -6 3 7 2 16 -1 19 -3 4 -6 -2 -5 -13z"/>
<path d="M406 3063 c-3 -10 -2 -43 3 -73 l8 -55 4 73 c4 68 -3 94 -15 55z"/>
<path d="M351 2964 c0 -11 3 -14 6 -6 3 7 2 16 -1 19 -3 4 -6 -2 -5 -13z"/>
<path d="M352 2890 c0 -19 2 -27 5 -17 2 9 2 25 0 35 -3 9 -5 1 -5 -18z"/>
<path d="M321 2798 c-14 -23 -14 -23 8 -4 22 20 25 26 13 26 -4 0 -13 -10 -21
-22z"/>
<path d="M292 2750 c0 -14 2 -19 5 -12 2 6 2 18 0 25 -3 6 -5 1 -5 -13z"/>
<path d="M421 1704 c0 -11 3 -14 6 -6 3 7 2 16 -1 19 -3 4 -6 -2 -5 -13z"/>
<path d="M362 1520 c0 -14 2 -19 5 -12 2 6 2 18 0 25 -3 6 -5 1 -5 -13z"/>
<path d="M362 1405 c0 -16 2 -22 5 -12 2 9 2 23 0 30 -3 6 -5 -1 -5 -18z"/>
<path d="M363 1335 c0 -22 2 -30 4 -17 2 12 2 30 0 40 -3 9 -5 -1 -4 -23z"/>
</g>
</svg>
